<svg width="33" height="33" viewBox="0 0 33 33" fill="none" xmlns="http://www.w3.org/2000/svg">
<path d="M30.7041 17.372C30.5709 18.4364 29.6708 19.2662 28.5706 19.2662C27.379 19.2662 26.4107 18.2964 26.4107 17.1056C26.4107 15.9147 27.3797 14.945 28.5706 14.945C29.6221 14.945 30.4979 15.7003 30.6899 16.6958H32.4482C32.4522 16.5409 32.4597 16.386 32.4597 16.2298C32.4597 10.2363 29.1907 4.99405 24.3447 2.18359V5.73724C25.3747 5.9009 26.1672 6.78813 26.1672 7.86335C26.1672 9.05489 25.1975 10.0239 24.0066 10.0239C22.8158 10.0239 21.8467 9.05422 21.8467 7.86335C21.8467 6.78813 22.6386 5.9009 23.6685 5.73724V1.81233C22.1754 1.03871 20.549 0.488924 18.832 0.210988V13.8089H22.648C22.8117 12.779 23.6989 11.9864 24.7748 11.9864C25.9664 11.9864 26.9354 12.9555 26.9354 14.147C26.9354 15.3385 25.9657 16.3076 24.7748 16.3076C23.6989 16.3076 22.8124 15.5157 22.648 14.4851H18.4939C18.3072 14.4851 18.1558 14.3336 18.1558 14.147V0.118342C17.5235 0.0426033 16.8817 0 16.2298 0C14.8503 0 13.5113 0.174471 12.2319 0.499743V17.8197C13.2618 17.9833 14.0544 18.8706 14.0544 19.9465C14.0544 21.138 13.0853 22.1064 11.8938 22.1064C10.7022 22.1064 9.73316 21.1373 9.73316 19.9465C9.73316 18.8706 10.525 17.984 11.5556 17.8197V0.689091C9.63916 1.2666 7.87282 2.19035 6.32558 3.38595V14.9849C7.3298 15.1695 8.09463 16.0486 8.09463 17.1056C8.09463 18.2971 7.12557 19.2662 5.93403 19.2662C4.74249 19.2662 3.77343 18.2971 3.77343 17.1056C3.77343 16.0121 4.59304 15.1154 5.64866 14.974V3.93911C2.19373 6.91729 0 11.321 0 16.2298C0 22.1294 3.16482 27.302 7.88499 30.1435V25.9535C6.85507 25.7899 6.06252 24.9026 6.06252 23.8267C6.06252 22.6352 7.03225 21.6668 8.22311 21.6668C9.41398 21.6668 10.3837 22.6359 10.3837 23.8267C10.3837 24.9026 9.59183 25.7892 8.56123 25.9535V30.5297C10.8463 31.7597 13.4572 32.4597 16.2298 32.4597C16.4658 32.4597 16.6998 32.4515 16.9331 32.4421V19.9181C15.9025 19.7551 15.11 18.8679 15.11 17.7919C15.11 16.6004 16.0797 15.6307 17.2706 15.6307C18.4614 15.6307 19.4312 16.6004 19.4312 17.7919C19.4312 18.8672 18.6393 19.7537 17.6094 19.9181V32.3968C19.3717 32.2473 21.0555 31.8193 22.6129 31.1491V24.5334C21.583 24.3698 20.7911 23.4825 20.7911 22.4066C20.7911 21.2151 21.7601 20.246 22.951 20.246C24.1419 20.246 25.1116 21.2158 25.1116 22.4066C25.1116 23.4825 24.319 24.3691 23.2891 24.5334V30.8414C28.3866 28.3684 31.9998 23.304 32.4143 17.372H30.7041Z" fill="url(#paint0_linear_1_30)"/>
<path d="M5.93403 18.5899C6.75382 18.5899 7.41838 17.9253 7.41838 17.1056C7.41838 16.2858 6.75382 15.6212 5.93403 15.6212C5.11425 15.6212 4.44968 16.2858 4.44968 17.1056C4.44968 17.9253 5.11425 18.5899 5.93403 18.5899Z" fill="url(#paint1_linear_1_30)"/>
<path d="M17.2706 19.277C18.0904 19.277 18.7549 18.6124 18.7549 17.7926C18.7549 16.9728 18.0904 16.3083 17.2706 16.3083C16.4508 16.3083 15.7862 16.9728 15.7862 17.7926C15.7862 18.6124 16.4508 19.277 17.2706 19.277Z" fill="url(#paint2_linear_1_30)"/>
<path d="M22.9517 23.8917C23.7715 23.8917 24.436 23.2271 24.436 22.4073C24.436 21.5875 23.7715 20.923 22.9517 20.923C22.1319 20.923 21.4673 21.5875 21.4673 22.4073C21.4673 23.2271 22.1319 23.8917 22.9517 23.8917Z" fill="url(#paint3_linear_1_30)"/>
<path d="M8.22244 25.3111C9.04222 25.3111 9.70679 24.6465 9.70679 23.8267C9.70679 23.007 9.04222 22.3424 8.22244 22.3424C7.40265 22.3424 6.73808 23.007 6.73808 23.8267C6.73808 24.6465 7.40265 25.3111 8.22244 25.3111Z" fill="url(#paint4_linear_1_30)"/>
<path d="M11.8938 21.4301C12.7135 21.4301 13.3781 20.7656 13.3781 19.9458C13.3781 19.126 12.7135 18.4614 11.8938 18.4614C11.074 18.4614 10.4094 19.126 10.4094 19.9458C10.4094 20.7656 11.074 21.4301 11.8938 21.4301Z" fill="url(#paint5_linear_1_30)"/>
<path d="M28.5713 18.5899C29.391 18.5899 30.0556 17.9253 30.0556 17.1056C30.0556 16.2858 29.391 15.6212 28.5713 15.6212C27.7515 15.6212 27.0869 16.2858 27.0869 17.1056C27.0869 17.9253 27.7515 18.5899 28.5713 18.5899Z" fill="url(#paint6_linear_1_30)"/>
<path d="M24.0066 9.3477C24.8264 9.3477 25.491 8.68314 25.491 7.86335C25.491 7.04357 24.8264 6.379 24.0066 6.379C23.1868 6.379 22.5223 7.04357 22.5223 7.86335C22.5223 8.68314 23.1868 9.3477 24.0066 9.3477Z" fill="url(#paint7_linear_1_30)"/>
<path d="M24.7742 15.6314C25.5939 15.6314 26.2585 14.9668 26.2585 14.147C26.2585 13.3272 25.5939 12.6626 24.7742 12.6626C23.9544 12.6626 23.2898 13.3272 23.2898 14.147C23.2898 14.9668 23.9544 15.6314 24.7742 15.6314Z" fill="url(#paint8_linear_1_30)"/>
<defs>
<linearGradient id="paint0_linear_1_30" x1="16.2298" y1="0" x2="16.2298" y2="32.4597" gradientUnits="userSpaceOnUse">
<stop stop-color="#06B6D4"/>
<stop offset="1" stop-color="#67E8F9"/>
</linearGradient>
<linearGradient id="paint1_linear_1_30" x1="16.2298" y1="0" x2="16.2298" y2="32.4597" gradientUnits="userSpaceOnUse">
<stop stop-color="#06B6D4"/>
<stop offset="1" stop-color="#67E8F9"/>
</linearGradient>
<linearGradient id="paint2_linear_1_30" x1="16.2298" y1="0" x2="16.2298" y2="32.4597" gradientUnits="userSpaceOnUse">
<stop stop-color="#06B6D4"/>
<stop offset="1" stop-color="#67E8F9"/>
</linearGradient>
<linearGradient id="paint3_linear_1_30" x1="16.2298" y1="0" x2="16.2298" y2="32.4597" gradientUnits="userSpaceOnUse">
<stop stop-color="#06B6D4"/>
<stop offset="1" stop-color="#67E8F9"/>
</linearGradient>
<linearGradient id="paint4_linear_1_30" x1="16.2298" y1="0" x2="16.2298" y2="32.4597" gradientUnits="userSpaceOnUse">
<stop stop-color="#06B6D4"/>
<stop offset="1" stop-color="#67E8F9"/>
</linearGradient>
<linearGradient id="paint5_linear_1_30" x1="16.2298" y1="0" x2="16.2298" y2="32.4597" gradientUnits="userSpaceOnUse">
<stop stop-color="#06B6D4"/>
<stop offset="1" stop-color="#67E8F9"/>
</linearGradient>
<linearGradient id="paint6_linear_1_30" x1="16.2298" y1="0" x2="16.2298" y2="32.4597" gradientUnits="userSpaceOnUse">
<stop stop-color="#06B6D4"/>
<stop offset="1" stop-color="#67E8F9"/>
</linearGradient>
<linearGradient id="paint7_linear_1_30" x1="16.2298" y1="0" x2="16.2298" y2="32.4597" gradientUnits="userSpaceOnUse">
<stop stop-color="#06B6D4"/>
<stop offset="1" stop-color="#67E8F9"/>
</linearGradient>
<linearGradient id="paint8_linear_1_30" x1="16.2298" y1="0" x2="16.2298" y2="32.4597" gradientUnits="userSpaceOnUse">
<stop stop-color="#06B6D4"/>
<stop offset="1" stop-color="#67E8F9"/>
</linearGradient>
</defs>
</svg>
