<svg xmlns="http://www.w3.org/2000/svg" xmlns:xlink="http://www.w3.org/1999/xlink" width="57" zoomAndPan="magnify" viewBox="0 0 42.75 42.749999" height="57" preserveAspectRatio="xMidYMid meet" version="1.0"><defs><clipPath id="7a0f6b90dc"><path d="M 0 0.421875 L 42.074219 0.421875 L 42.074219 42.496094 L 0 42.496094 Z M 0 0.421875 " clip-rule="nonzero"/></clipPath><clipPath id="219454c791"><path d="M 21.039062 0.421875 C 9.417969 0.421875 0 9.839844 0 21.457031 C 0 33.078125 9.417969 42.496094 21.039062 42.496094 C 32.65625 42.496094 42.074219 33.078125 42.074219 21.457031 C 42.074219 9.839844 32.65625 0.421875 21.039062 0.421875 Z M 21.039062 0.421875 " clip-rule="nonzero"/></clipPath><clipPath id="338598c204"><path d="M 3.167969 3.589844 L 38.914062 3.589844 L 38.914062 39.332031 L 3.167969 39.332031 Z M 3.167969 3.589844 " clip-rule="nonzero"/></clipPath><clipPath id="49de9e6cde"><path d="M 21.039062 3.589844 C 11.167969 3.589844 3.167969 11.589844 3.167969 21.460938 C 3.167969 31.332031 11.167969 39.332031 21.039062 39.332031 C 30.910156 39.332031 38.914062 31.332031 38.914062 21.460938 C 38.914062 11.589844 30.910156 3.589844 21.039062 3.589844 Z M 21.039062 3.589844 " clip-rule="nonzero"/></clipPath><clipPath id="b735260b8b"><path d="M 3.167969 3.589844 L 38.910156 3.589844 L 38.910156 39.332031 L 3.167969 39.332031 Z M 3.167969 3.589844 " clip-rule="nonzero"/></clipPath><clipPath id="c07a5a403e"><path d="M 21.039062 3.589844 C 11.167969 3.589844 3.167969 11.589844 3.167969 21.460938 C 3.167969 31.332031 11.167969 39.332031 21.039062 39.332031 C 30.910156 39.332031 38.910156 31.332031 38.910156 21.460938 C 38.910156 11.589844 30.910156 3.589844 21.039062 3.589844 Z M 21.039062 3.589844 " clip-rule="nonzero"/></clipPath><clipPath id="ffeb72f9b8"><path d="M 8 8 L 34 8 L 34 33.367188 L 8 33.367188 Z M 8 8 " clip-rule="nonzero"/></clipPath></defs><g clip-path="url(#7a0f6b90dc)"><g clip-path="url(#219454c791)"><path stroke-linecap="butt" transform="matrix(0.529034, 0, 0, 0.529034, 0.0000005, 0.4214)" fill="none" stroke-linejoin="miter" d="M 39.768813 0.000897718 C 17.802192 0.000897718 -0.000000945119 17.80309 -0.000000945119 39.762328 C -0.000000945119 61.728949 17.802192 79.531142 39.768813 79.531142 C 61.72805 79.531142 79.530243 61.728949 79.530243 39.762328 C 79.530243 17.80309 61.72805 0.000897718 39.768813 0.000897718 Z M 39.768813 0.000897718 " stroke="#0d1b25" stroke-width="8.456612" stroke-opacity="1" stroke-miterlimit="4"/></g></g><g clip-path="url(#338598c204)"><g clip-path="url(#49de9e6cde)"><path fill="#0d1b25" d="M 3.167969 3.589844 L 38.914062 3.589844 L 38.914062 39.332031 L 3.167969 39.332031 Z M 3.167969 3.589844 " fill-opacity="1" fill-rule="nonzero"/></g></g><g clip-path="url(#b735260b8b)"><g clip-path="url(#c07a5a403e)"><path stroke-linecap="butt" transform="matrix(0.529034, 0, 0, 0.529034, 3.167824, 3.589224)" fill="none" stroke-linejoin="miter" d="M 33.780875 0.00117103 C 15.122169 0.00117103 0.000272813 15.123067 0.000272813 33.781773 C 0.000272813 52.440479 15.122169 67.562375 33.780875 67.562375 C 52.439581 67.562375 67.561477 52.440479 67.561477 33.781773 C 67.561477 15.123067 52.439581 0.00117103 33.780875 0.00117103 Z M 33.780875 0.00117103 " stroke="#ffffff" stroke-width="5.637741" stroke-opacity="1" stroke-miterlimit="4"/></g></g><g clip-path="url(#ffeb72f9b8)"><path fill="#ffffff" d="M 19.136719 8.6875 C 17.261719 9.097656 15.769531 10.074219 14.804688 11.535156 C 14.019531 12.710938 13.589844 14.160156 13.652344 15.425781 C 13.671875 16.09375 13.671875 16.117188 13.035156 17.132812 C 12.683594 17.710938 12.394531 18.203125 12.394531 18.234375 C 12.394531 18.265625 12.808594 18.328125 13.320312 18.367188 L 14.246094 18.441406 L 14.246094 19.996094 C 14.246094 21.023438 14.289062 21.628906 14.382812 21.804688 C 14.617188 22.277344 15.101562 22.421875 16.410156 22.421875 L 17.59375 22.421875 L 17.570312 23.933594 C 17.550781 24.777344 17.539062 25.488281 17.539062 25.519531 C 17.539062 25.550781 17.273438 25.613281 16.953125 25.644531 C 15.761719 25.765625 14.042969 26.539062 13.035156 27.394531 C 11.800781 28.433594 10.800781 29.964844 10.449219 31.34375 L 10.277344 32.042969 L 9.339844 32.09375 C 8.773438 32.125 8.351562 32.199219 8.238281 32.289062 C 8.003906 32.484375 8.023438 32.988281 8.269531 33.125 C 8.402344 33.195312 12.53125 33.226562 20.90625 33.226562 C 34.457031 33.226562 33.796875 33.257812 33.796875 32.671875 C 33.796875 32.257812 33.53125 32.144531 32.625 32.144531 L 31.792969 32.144531 L 31.523438 31.3125 C 30.824219 29.164062 29.394531 27.464844 27.429688 26.445312 C 26.59375 26.015625 25.585938 25.675781 24.816406 25.5625 L 24.332031 25.488281 L 24.332031 22.421875 L 27.027344 22.421875 L 27.625 21.824219 L 27.625 18.410156 L 28.53125 18.410156 C 29.035156 18.410156 29.476562 18.378906 29.507812 18.335938 C 29.589844 18.265625 29.199219 17.554688 28.664062 16.824219 C 28.3125 16.332031 28.304688 16.289062 28.292969 15.332031 C 28.261719 13.417969 27.65625 11.9375 26.339844 10.632812 C 24.898438 9.179688 23.167969 8.523438 20.863281 8.542969 C 20.257812 8.542969 19.476562 8.613281 19.136719 8.6875 Z M 21.863281 11.722656 C 22.695312 11.875 23.445312 12.265625 24.085938 12.875 C 26.246094 14.921875 25.699219 18.492188 23.015625 19.828125 C 22.65625 20.003906 22.160156 20.179688 21.902344 20.222656 L 21.449219 20.28125 L 21.472656 23.769531 L 21.5 27.257812 L 23.34375 27.300781 C 25.277344 27.339844 25.359375 27.363281 25.359375 27.824219 C 25.359375 28.289062 25.320312 28.289062 20.988281 28.289062 C 16.636719 28.289062 16.613281 28.289062 16.613281 27.816406 C 16.613281 27.414062 16.808594 27.371094 18.683594 27.339844 L 20.472656 27.308594 L 20.503906 23.800781 L 20.523438 20.28125 L 20.296875 20.222656 C 20.164062 20.191406 19.957031 20.160156 19.84375 20.160156 C 19.722656 20.160156 19.300781 19.996094 18.898438 19.800781 C 17.664062 19.179688 16.871094 18.082031 16.605469 16.628906 C 16.285156 14.878906 17.261719 12.996094 18.910156 12.183594 C 19.988281 11.648438 20.824219 11.527344 21.863281 11.722656 Z M 28.652344 30.347656 C 28.898438 30.59375 28.910156 30.738281 28.683594 30.984375 C 28.53125 31.160156 28.148438 31.167969 20.957031 31.167969 C 14.0625 31.167969 13.375 31.160156 13.199219 30.992188 C 12.953125 30.769531 12.960938 30.488281 13.238281 30.304688 C 13.445312 30.160156 14.351562 30.140625 20.957031 30.140625 C 28.3125 30.140625 28.449219 30.140625 28.652344 30.347656 Z M 28.652344 30.347656 " fill-opacity="1" fill-rule="nonzero"/></g><path fill="#ffffff" d="M 18.765625 12.730469 C 18.085938 13.164062 17.664062 13.644531 17.304688 14.386719 C 16.75 15.550781 16.820312 17.050781 17.480469 18.089844 C 17.871094 18.707031 19.09375 19.769531 19.25 19.613281 C 19.269531 19.59375 19.28125 17.96875 19.269531 16.003906 L 19.238281 12.433594 Z M 18.765625 12.730469 " fill-opacity="1" fill-rule="nonzero"/></svg>